HIERARCHY
ROOT Hips
{
	OFFSET -0.001795 -0.223333 0.028219
	CHANNELS 6 Xposition Yposition Zposition Zrotation Yrotation Xrotation 
	JOINT LeftUpLeg
	{
		OFFSET 0.069520 -0.091406 -0.006815
		CHANNELS 3 Zrotation Yrotation Xrotation
		JOINT LeftLeg
		{
			OFFSET 0.034277 -0.375199 -0.004496
			CHANNELS 3 Zrotation Yrotation Xrotation
			JOINT LeftFoot
			{
				OFFSET -0.013596 -0.397961 -0.043693
				CHANNELS 3 Zrotation Yrotation Xrotation
				JOINT LeftToe
				{
					OFFSET 0.026358 -0.055791 0.119288
					CHANNELS 3 Zrotation Yrotation Xrotation
					End Site
					{
						OFFSET 0.000000 0.000000 0.000000
					}
				}
			}
		}
	}
	JOINT RightUpLeg
	{
		OFFSET -0.067670 -0.090522 -0.004320
		CHANNELS 3 Zrotation Yrotation Xrotation
		JOINT RightLeg
		{
			OFFSET -0.038290 -0.382569 -0.008850
			CHANNELS 3 Zrotation Yrotation Xrotation
			JOINT RightFoot
			{
				OFFSET 0.015774 -0.398415 -0.042312
				CHANNELS 3 Zrotation Yrotation Xrotation
				JOINT RightToe
				{
					OFFSET -0.025372 -0.048144 0.123348
					CHANNELS 3 Zrotation Yrotation Xrotation
					End Site
					{
						OFFSET 0.000000 0.000000 0.000000
					}
				}
			}
		}
	}
	JOINT Spine
	{
		OFFSET -0.002533 0.108963 -0.026696
		CHANNELS 3 Zrotation Yrotation Xrotation
		JOINT Spine1
		{
			OFFSET 0.005487 0.135180 0.001092
			CHANNELS 3 Zrotation Yrotation Xrotation
			JOINT Spine2
			{
				OFFSET 0.001457 0.052922 0.025425
				CHANNELS 3 Zrotation Yrotation Xrotation
				JOINT Neck
				{
					OFFSET -0.002778 0.213870 -0.042857
					CHANNELS 3 Zrotation Yrotation Xrotation
					JOINT Head
					{
						OFFSET 0.005152 0.064970 0.051349
						CHANNELS 3 Zrotation Yrotation Xrotation
						End Site
						{
							OFFSET 0.000000 0.000000 0.000000
						}
					}
				}
				JOINT LeftShoulder
				{
					OFFSET 0.078845 0.121749 -0.034090
					CHANNELS 3 Zrotation Yrotation Xrotation
					JOINT LeftArm
					{
						OFFSET 0.090977 0.030469 -0.008868
						CHANNELS 3 Zrotation Yrotation Xrotation
						JOINT LeftForeArm
						{
							OFFSET 0.259612 -0.012772 -0.027456
							CHANNELS 3 Zrotation Yrotation Xrotation
							JOINT LeftHand
							{
								OFFSET 0.249234 0.008986 -0.001171
								CHANNELS 3 Zrotation Yrotation Xrotation
								End Site
								{
									OFFSET 0.000000 0.000000 0.000000
								}
							}
						}
					}
				}
				JOINT RightShoulder
				{
					OFFSET -0.081759 0.118833 -0.038615
					CHANNELS 3 Zrotation Yrotation Xrotation
					JOINT RightArm
					{
						OFFSET -0.096012 0.032551 -0.009143
						CHANNELS 3 Zrotation Yrotation Xrotation
						JOINT RightForeArm
						{
							OFFSET -0.253742 -0.013329 -0.021401
							CHANNELS 3 Zrotation Yrotation Xrotation
							JOINT RightHand
							{
								OFFSET -0.255298 0.007772 -0.005559
								CHANNELS 3 Zrotation Yrotation Xrotation
								End Site
								{
									OFFSET 0.000000 0.000000 0.000000
								}
							}
						}
					}
				}
			}
		}
	}
}
MOTION
Frames: 12
Frame Time: 0.050000
0.000000 0.948274 0.000000 -1.917067 0.916544 3.979198 6.598110 -0.257227 -2.979143 -0.930716 0.000211 3.731275 5.141514 12.926463 11.696164 0.000000 0.000000 0.000000 -3.382902 0.494049 -5.478587 -1.576263 0.091879 -1.418033 -4.538341 -14.626192 22.865650 0.000000 0.000000 0.000000 1.304724 0.021763 -0.976938 0.048269 0.035388 -1.921271 0.012599 0.339154 1.137653 1.651417 -0.732394 -5.496785 0.000000 0.000000 0.000000 -20.781974 0.296625 -2.532025 -50.441312 -5.527050 -3.331891 -14.068489 -19.382784 3.050517 0.000000 0.000000 0.000000 18.696342 -0.740312 -2.051910 54.878128 4.181066 -3.093192 9.638460 17.363582 1.846422 0.000000 0.000000 0.000000 
0.000054 0.947060 0.000294 -2.124506 -0.493927 4.421183 6.040751 -0.230677 -2.561537 0.094932 -0.104315 2.732868 5.939099 14.075857 11.773598 0.000000 0.000000 0.000000 -3.592929 0.543854 -6.062690 -0.929924 0.017605 -1.642788 -3.860527 -13.807417 22.301916 0.000000 0.000000 0.000000 1.435861 0.032031 -1.222970 -0.966266 0.490907 -2.151523 1.057149 0.814864 0.809540 1.157083 -0.436873 -5.064912 0.000000 0.000000 0.000000 -21.348474 1.316517 -3.037617 -50.203292 -5.244618 -3.423236 -14.909349 -19.745083 3.275612 0.000000 0.000000 0.000000 17.626875 -0.941262 -2.181198 56.027050 3.497495 -3.408648 10.386496 17.967205 2.003173 0.000000 0.000000 0.000000 
0.000010 0.947016 0.000263 -1.985579 0.514158 4.417548 5.917444 -0.253588 -2.834472 0.293648 -0.136474 2.848039 5.451085 13.356709 11.525121 0.000000 0.000000 0.000000 -3.639756 0.549516 -6.260506 -1.040443 0.062344 -0.971371 -4.439347 -14.501314 22.378784 0.000000 0.000000 0.000000 1.076573 0.021336 -0.933301 -0.107417 0.152596 -3.714268 0.042994 0.336771 1.391293 1.670858 -0.845862 -4.612998 0.000000 0.000000 0.000000 -20.582729 0.918454 -2.782289 -50.597348 -4.645530 -3.737861 -14.836603 -19.344674 3.185334 0.000000 0.000000 0.000000 19.280411 -0.187004 -1.860337 54.758453 2.708452 -3.762976 9.380942 17.621666 1.837352 0.000000 0.000000 0.000000 
-0.000136 0.946743 0.000221 -2.342837 0.187563 4.760129 6.277228 -0.271930 -3.317032 0.288946 -0.146877 3.167365 5.691008 13.699928 11.460437 0.000000 0.000000 0.000000 -3.591841 0.629250 -7.322207 -0.445801 0.052519 0.135134 -4.337247 -14.387557 22.200367 0.000000 0.000000 0.000000 1.019791 0.022648 -0.960989 -0.769613 0.429681 -3.386514 1.305230 -0.498856 0.468432 1.325577 -0.724649 -3.557440 0.000000 0.000000 0.000000 -20.467596 2.039055 -3.071495 -51.304078 -4.854047 -3.681366 -14.512381 -18.871018 3.095108 0.000000 0.000000 0.000000 18.295056 0.048015 -1.981778 54.850678 2.348009 -3.786475 10.561054 17.414363 1.922491 0.000000 0.000000 0.000000 
-0.000356 0.946697 0.000166 -2.280690 0.852982 4.634857 6.115922 -0.282861 -3.412733 0.636205 -0.201174 3.323720 5.375800 13.231928 11.286946 0.000000 0.000000 0.000000 -3.542931 0.615308 -7.187086 -0.573669 0.075605 0.334876 -4.697657 -14.817341 22.277458 0.000000 0.000000 0.000000 0.838352 0.023515 -0.920190 -0.263400 0.208294 -3.128097 0.839708 -0.820551 0.442236 1.123277 -0.586683 -3.373348 0.000000 0.000000 0.000000 -20.464692 1.923332 -3.045817 -51.329485 -5.307338 -3.487129 -14.775308 -18.364185 3.045572 0.000000 0.000000 0.000000 18.401435 -0.194250 -2.086794 54.897179 2.472693 -3.738646 10.892138 17.307263 1.956883 0.000000 0.000000 0.000000 
-0.000444 0.947073 0.000206 -2.413558 0.645214 4.681943 6.057935 -0.280257 -3.393575 0.951095 -0.241724 3.278490 5.477296 13.399094 11.450164 0.000000 0.000000 0.000000 -3.405599 0.650385 -7.603138 -0.560872 0.099886 0.918816 -4.592846 -14.702470 22.313680 0.000000 0.000000 0.000000 0.736696 0.032438 -1.071404 -0.179092 0.172247 -3.232490 1.116196 -0.934076 0.635579 1.185420 -0.703705 -2.655461 0.000000 0.000000 0.000000 -20.697168 2.156876 -3.124402 -51.746764 -5.304294 -3.550219 -14.270096 -17.989824 2.913090 0.000000 0.000000 0.000000 18.181398 -0.174458 -2.111678 55.166513 2.747728 -3.648012 10.728877 16.685520 1.849615 0.000000 0.000000 0.000000 
-0.000460 0.947086 0.000352 -2.338926 0.739052 4.663196 5.873891 -0.279045 -3.324208 1.153568 -0.264609 3.173135 5.424812 13.327313 11.466490 0.000000 0.000000 0.000000 -3.344999 0.649046 -7.568370 -0.803865 0.128782 0.944752 -4.648333 -14.768038 22.307135 0.000000 0.000000 0.000000 0.587200 0.033461 -1.045660 -0.158160 0.156563 -2.960965 1.081906 -1.407164 0.625761 1.164180 -0.679081 -2.862096 0.000000 0.000000 0.000000 -20.891862 2.343826 -3.145482 -51.752707 -5.288276 -3.578720 -14.107968 -17.731630 2.858694 0.000000 0.000000 0.000000 18.245213 0.117657 -2.065829 55.199422 2.828967 -3.599521 10.719257 16.698153 1.837131 0.000000 0.000000 0.000000 
-0.000423 0.947127 0.000523 -2.414139 0.628269 4.703967 5.766549 -0.277350 -3.292521 1.454636 -0.301762 3.103360 5.492480 13.430828 11.510925 0.000000 0.000000 0.000000 -3.198649 0.661050 -7.652434 -0.929278 0.145569 0.999601 -4.588134 -14.699879 22.314126 0.000000 0.000000 0.000000 0.503243 0.031513 -0.973743 -0.088971 0.125838 -2.987361 1.007861 -1.453426 0.596706 1.315131 -0.830501 -2.426085 0.000000 0.000000 0.000000 -20.834900 2.260931 -3.072115 -51.881489 -5.314197 -3.576555 -13.902106 -17.413099 2.775617 0.000000 0.000000 0.000000 18.354189 0.011435 -2.156243 55.404725 2.981790 -3.538219 10.678910 16.194261 1.766531 0.000000 0.000000 0.000000 
-0.000486 0.947021 0.000748 -2.443411 0.700177 4.820327 5.805127 -0.280184 -3.306405 1.470791 -0.294409 2.904621 5.462762 13.386840 11.487326 0.000000 0.000000 0.000000 -3.162129 0.664602 -7.677485 -0.928277 0.139011 0.862991 -4.628738 -14.749363 22.329451 0.000000 0.000000 0.000000 0.339474 0.038239 -1.071866 -0.075256 0.116064 -2.833951 1.176139 -1.792234 0.428847 1.192247 -0.750870 -2.314127 0.000000 0.000000 0.000000 -20.720347 2.221848 -2.954262 -52.108258 -5.274731 -3.606569 -13.554610 -16.914798 2.649831 0.000000 0.000000 0.000000 18.329646 0.096111 -2.195889 55.316734 3.076708 -3.460652 10.426082 15.830244 1.680856 0.000000 0.000000 0.000000 
-0.000608 0.946836 0.001028 -2.438921 0.724331 4.870702 5.867141 -0.277571 -3.220590 1.377065 -0.271575 2.682901 5.449507 13.361351 11.447680 0.000000 0.000000 0.000000 -3.127889 0.679120 -7.860511 -0.983609 0.158232 1.133224 -4.670650 -14.799923 22.241243 0.000000 0.000000 0.000000 0.248514 0.047053 -1.245352 -0.054274 0.099612 -2.576656 1.151379 -1.986904 0.281990 0.916295 -0.565485 -2.021735 0.000000 0.000000 0.000000 -20.486889 2.316356 -2.940044 -52.268458 -5.293911 -3.599253 -13.679403 -16.853315 2.662728 0.000000 0.000000 0.000000 18.281449 0.313207 -2.123210 55.303272 3.043712 -3.453474 10.364381 15.741178 1.656971 0.000000 0.000000 0.000000 
-0.000713 0.946706 0.001298 -2.441624 0.722086 4.890795 6.060351 -0.280101 -3.290006 1.056678 -0.234913 2.798809 5.454208 13.359635 11.388791 0.000000 0.000000 0.000000 -3.165589 0.692910 -8.068570 -0.899599 0.165622 1.496375 -4.697761 -14.832747 22.153270 0.000000 0.000000 0.000000 0.217533 0.045985 -1.210506 -0.111750 0.124072 -2.537635 1.176904 -2.044582 0.245729 0.769257 -0.455065 -2.011355 0.000000 0.000000 0.000000 -20.477248 2.304113 -2.916742 -52.068065 -5.138621 -3.651917 -14.018133 -17.145280 2.764563 0.000000 0.000000 0.000000 18.244656 0.280664 -2.152268 55.438296 3.050204 -3.455290 10.461081 15.609453 1.650255 0.000000 0.000000 0.000000 
-0.000729 0.946514 0.001536 -2.525558 0.640606 4.773312 6.248847 -0.276485 -3.278899 0.870767 -0.221890 3.069061 5.512864 13.429994 11.283041 0.000000 0.000000 0.000000 -3.192323 0.695039 -8.116088 -0.688470 0.154804 1.811482 -4.670559 -14.795205 22.041220 0.000000 0.000000 0.000000 0.245463 0.039961 -1.075831 -0.181978 0.154835 -2.537553 1.319735 -2.067384 0.274371 0.739201 -0.393266 -2.584551 0.000000 0.000000 0.000000 -20.380640 2.397102 -2.931022 -52.014517 -5.064628 -3.687475 -14.427951 -17.515494 2.894992 0.000000 0.000000 0.000000 18.102579 0.428952 -2.079456 55.465865 2.950127 -3.506192 10.541620 15.868794 1.688285 0.000000 0.000000 0.000000 
